<svg width="28" height="20" viewBox="0 0 28 20" fill="none" xmlns="http://www.w3.org/2000/svg">
<path d="M25.5744 0H1.50892C0.677588 0 0.00366211 0.699555 0.00366211 1.5625V18.4375C0.00366211 19.3004 0.677588 20 1.50892 20H25.5744C26.4057 20 27.0797 19.3004 27.0797 18.4375V1.5625C27.0797 0.699555 26.4057 0 25.5744 0Z" fill="#016FD0"/>
<path d="M13.5433 7.21272C13.5433 6.87128 13.2218 6.84235 13.0862 6.84235H12.2815V7.53293H12.9765C13.127 7.53293 13.5433 7.55415 13.5433 7.21272Z" fill="white"/>
<path d="M19.6383 6.90399L19.209 8.03825H20.0805L19.6383 6.90399Z" fill="white"/>
<path d="M1.46851 7.9964H2.33449L1.91637 6.89301L1.46851 7.9964Z" fill="white"/>
<path d="M25.9737 15.5002H24.4109V14.7286H25.9719C26.1187 14.7286 26.3436 14.6688 26.3436 14.4431C26.3436 14.2174 26.1391 14.1846 26.0053 14.1846C25.7916 14.1846 25.6337 14.1846 25.2211 14.1846C24.8086 14.1846 24.2919 13.957 24.2919 13.1487C24.2919 12.6626 24.6636 12.1514 25.4739 12.1514H27.0906V11.4859H10.7242L10.2671 12.1148L9.81363 11.4859H5.13062V16.158H9.81735L10.2448 15.5175L10.6592 16.158H13.5303V15.0584H13.7775C14.08 15.0915 14.3856 15.0443 14.6658 14.9215V16.156H16.5854V15.3999L17.1615 16.156H26.0537C26.8453 16.156 27.0999 15.7818 27.0999 15.7818V14.854C26.9475 15.2764 26.5758 15.5002 25.9737 15.5002ZM8.44032 12.9076H6.64702V13.4535H8.38828V14.1364H6.64702V14.7305H8.44032V15.5021H5.82749V12.1533H8.44032V12.9076ZM12.0158 15.5002H10.9881L10.2596 14.391L9.49585 15.5002H8.50722L9.78761 13.82L8.50722 12.1533H9.51629L10.2596 13.1989L11.0383 12.1533H12.0306L10.7168 13.8316L12.0158 15.5002ZM13.9633 14.3775H12.9115V15.5002H12.1012V12.1533H13.8351C14.2811 12.1533 14.9724 12.3732 14.9724 13.2567C14.9821 13.4003 14.9632 13.5445 14.9168 13.6801C14.8705 13.8158 14.7977 13.9401 14.703 14.0453C14.6083 14.1504 14.4938 14.2342 14.3665 14.2914C14.2392 14.3485 14.102 14.3778 13.9633 14.3775ZM17.3957 15.5002L16.433 14.2753H16.1431V15.4982H15.3199V12.1533H17.1188C17.2628 12.1456 17.4069 12.1693 17.5416 12.223C17.6763 12.2766 17.7986 12.359 17.9007 12.4648C18.0029 12.5706 18.0824 12.6975 18.1344 12.8372C18.1863 12.977 18.2094 13.1264 18.2022 13.276C18.2022 13.8297 17.8621 14.0978 17.3901 14.2753L18.3992 15.5002H17.3957ZM21.1402 15.5002H18.5107V12.1533H21.1309V12.9249H19.3413V13.4574H21.0845V14.1692H19.3283V14.7344H21.1365L21.1402 15.5002ZM23.045 15.5002H21.484V14.7286H23.045C23.1918 14.7286 23.4167 14.6688 23.4167 14.4431C23.4167 14.2174 23.2123 14.1846 23.0766 14.1846C22.8647 14.1846 22.7049 14.1846 22.2924 14.1846C21.8798 14.1846 21.3725 13.957 21.3725 13.1487C21.3725 12.6626 21.7442 12.1514 22.5544 12.1514H24.1674L23.8329 12.923H22.4578C22.3871 12.923 22.1772 12.9905 22.1772 13.1892C22.177 13.2566 22.2014 13.3215 22.2456 13.3709C22.2897 13.4204 22.3503 13.4505 22.415 13.4554L23.3851 13.467C23.5008 13.4682 23.6151 13.4934 23.7213 13.5412C23.8275 13.589 23.9234 13.6583 24.0034 13.7451C24.0834 13.8319 24.1459 13.9345 24.1871 14.0467C24.2284 14.159 24.2476 14.2786 24.2436 14.3987C24.2455 15.1182 23.8236 15.5002 23.045 15.5002Z" fill="white"/>
<path d="M12.7333 10.0979V9.3668L13.2908 10.0979H16.1137V9.69859C16.3701 9.98987 16.7994 10.0979 17.3495 10.0979H19.0981L19.3973 9.40924H19.9102L20.2039 10.0979H22.9468V9.27421L23.4671 10.0979H25.4165V5.42969H23.4151V6.30353L22.8724 5.42969H21.0308V6.60638L20.5346 5.42969H17.5613C16.6581 5.42969 16.3329 5.71904 16.0951 5.88879V5.42969H6.2403L5.88722 6.30739L5.56015 5.42969H3.31713V6.66426L2.81167 5.42969H0.98492L0 7.75029V10.0979H1.3157L1.61304 9.39188L2.18169 9.42467L2.47717 10.1307L6.75134 10.0998L12.7333 10.0979ZM22.6457 6.09327L23.9168 8.17853V6.09327H24.7456V9.4401H23.7607L22.4394 7.31819V9.4401H21.6181V6.09327H22.6457ZM20.1686 6.09327L21.5456 9.4401H20.6573L20.3581 8.7418H18.9179L18.6261 9.4401H17.7657L19.1409 6.09327H20.1686ZM17.4684 6.09327H18.3325V6.90345H17.4851C17.3747 6.89549 17.264 6.91245 17.1605 6.95319C17.057 6.99392 16.9633 7.05746 16.8858 7.13941C16.8082 7.22137 16.7487 7.3198 16.7113 7.42792C16.674 7.53604 16.6596 7.65129 16.6693 7.76572C16.6693 8.57012 17.2156 8.73023 17.4126 8.73023H17.7378L17.4126 9.4401C16.5336 9.4401 15.8832 8.91927 15.8832 7.79273C15.8832 6.8803 16.3534 6.09327 17.4684 6.09327ZM14.6809 6.09327H15.4688V9.4401H14.6809V6.09327ZM12.9508 6.09327C14.2739 6.09327 14.3408 6.82436 14.3408 7.19666C14.3459 7.44678 14.2624 7.69015 14.1063 7.8807C13.9501 8.07124 13.7321 8.19574 13.4934 8.23061L14.5545 9.4401H13.5659L12.5698 8.25955H12.2855V9.4401H11.466L11.4567 6.09327H12.9508ZM8.41827 6.09327H10.9958V6.85137H9.19134V7.39342H10.9512V8.08015H9.19134V8.69936H10.9958V9.4401H8.42013L8.41827 6.09327ZM2.91759 9.4401L2.62212 8.74952H1.18934L0.890144 9.4401H0.00929169L1.38446 6.12992H2.43257L3.81889 9.4401H2.91759ZM5.51927 9.4401L4.70717 7.03848V9.4401H3.87649V6.13956H5.15689L5.90023 8.24797L6.60454 6.08555H7.87006V9.4401H7.0877L7.06169 6.9999L6.22172 9.4401H5.51927Z" fill="white"/>
<path d="M17.0583 12.8962H16.1292V13.5964H17.0769C17.164 13.593 17.2465 13.5547 17.3071 13.4896C17.3676 13.4246 17.4017 13.3378 17.4021 13.2473C17.4043 13.2001 17.3969 13.1529 17.3803 13.1089C17.3637 13.0649 17.3384 13.025 17.3059 12.9919C17.2734 12.9587 17.2346 12.9331 17.192 12.9166C17.1493 12.9001 17.1038 12.8932 17.0583 12.8962Z" fill="white"/>
<path d="M13.7961 12.8959H12.9004V13.6964H13.7961C13.8477 13.6989 13.8993 13.6902 13.9475 13.6708C13.9957 13.6514 14.0395 13.6218 14.076 13.5839C14.1126 13.5459 14.1411 13.5005 14.1598 13.4504C14.1785 13.4004 14.1869 13.3469 14.1845 13.2933C14.1861 13.2402 14.1771 13.1873 14.1581 13.1379C14.139 13.0886 14.1104 13.0439 14.0739 13.0065C14.0374 12.9692 13.9939 12.9401 13.9461 12.9211C13.8983 12.9021 13.8473 12.8935 13.7961 12.8959Z" fill="white"/>
<path d="M25.3844 12.9241C25.3156 12.9241 25.1038 12.9917 25.1038 13.1903C25.1036 13.2577 25.128 13.3227 25.1722 13.3721C25.2163 13.4215 25.2769 13.4517 25.3416 13.4566L26.3135 13.4681C26.4822 13.4679 26.6471 13.5201 26.7869 13.6181C26.9267 13.7161 27.035 13.8554 27.0978 14.0179V12.222L26.7595 12.9241H25.3844Z" fill="white"/>
</svg>
