<svg width="40" height="40" viewBox="0 0 40 40" fill="none" xmlns="http://www.w3.org/2000/svg">
<rect width="40" height="40" rx="20" fill="#0051D1"/>
<path d="M25.8355 17.1338C25.6938 17.0095 25.4937 16.9833 25.3261 17.0671L22.761 18.3498L20.3542 15.4993C20.2651 15.3939 20.1359 15.3333 20 15.3333C19.8641 15.3333 19.735 15.3939 19.6459 15.4993L17.2391 18.3497L14.674 17.0671C14.5063 16.9833 14.3063 17.0094 14.1645 17.1337C14.0227 17.258 13.9661 17.4568 14.0203 17.64L15.8016 23.6586C15.8616 23.8614 16.0437 24 16.25 24H23.75C23.9564 24 24.1385 23.8614 24.1985 23.6586L25.9797 17.6401C26.034 17.4569 25.9774 17.2581 25.8355 17.1338ZM23.4026 23.037H16.5975L15.2299 18.4161L17.1522 19.3774C17.3431 19.4728 17.5725 19.4246 17.7115 19.2599L20 16.5497L22.2886 19.2599C22.4276 19.4246 22.657 19.4728 22.8478 19.3774L24.7702 18.4161L23.4026 23.037Z" fill="white"/>
<path fill-rule="evenodd" clip-rule="evenodd" d="M14.674 17.0671L17.2391 18.3497L19.6459 15.4993C19.735 15.3939 19.8641 15.3333 20 15.3333C20.1359 15.3333 20.2651 15.3939 20.3542 15.4993L22.761 18.3498L25.3261 17.0671C25.4937 16.9833 25.6938 17.0095 25.8355 17.1338C25.9774 17.2581 26.034 17.4569 25.9797 17.6401L24.1985 23.6586C24.1385 23.8614 23.9564 24 23.75 24H16.25C16.0437 24 15.8616 23.8614 15.8016 23.6586L14.0203 17.64C13.9661 17.4568 14.0227 17.258 14.1645 17.1337C14.3063 17.0094 14.5063 16.9833 14.674 17.0671ZM24.3903 23.7153C24.306 24.0002 24.048 24.2 23.75 24.2H16.25C15.952 24.2 15.6941 24.0001 15.6098 23.7153L13.8285 17.6968C13.7526 17.44 13.8312 17.1599 14.0327 16.9833C14.2351 16.8059 14.5225 16.7678 14.7634 16.8882L17.1878 18.1005L19.4931 15.3703C19.6195 15.2207 19.8042 15.1333 20 15.1333C20.1959 15.1333 20.3806 15.2207 20.507 15.3703L22.8123 18.1005L25.2366 16.8882C25.4776 16.7677 25.765 16.8059 25.9674 16.9834C26.1689 17.16 26.2475 17.4401 26.1715 17.6968L24.3903 23.7153ZM17.1522 19.3774L15.2299 18.4161L16.5975 23.037H23.4026L24.7702 18.4161L22.8478 19.3774C22.657 19.4728 22.4276 19.4246 22.2886 19.2599L20 16.5497L17.7115 19.2599C17.5725 19.4246 17.3431 19.4728 17.1522 19.3774ZM20 16.8597L17.8643 19.389C17.6666 19.6231 17.3375 19.6936 17.0628 19.5563L15.5523 18.8009L16.7468 22.837H23.2532L24.4477 18.8009L22.9373 19.5562C22.6627 19.6935 22.3335 19.6232 22.1358 19.389L20 16.8597Z" fill="white"/>
</svg>
