<svg width="28" height="20" viewBox="0 0 28 20" fill="none" xmlns="http://www.w3.org/2000/svg">
<path d="M25.5707 0H1.50525C0.673925 0 0 0.699555 0 1.5625V18.4375C0 19.3004 0.673925 20 1.50525 20H25.5707C26.4021 20 27.076 19.3004 27.076 18.4375V1.5625C27.076 0.699555 26.4021 0 25.5707 0Z" fill="#CCCCCC"/>
<path d="M14.7174 15.6945C17.6908 15.708 20.3946 13.1868 20.3946 10.1004C20.3946 6.73812 17.6852 4.41366 14.7174 4.41559H12.1641C9.15913 4.42138 6.69312 6.75162 6.69312 10.1081C6.69312 13.183 9.16471 15.7022 12.1696 15.7022L14.7174 15.6945Z" fill="#004A98"/>
<path d="M13.3 13.0995V6.99611C13.895 7.2326 14.4069 7.65092 14.768 8.1958C15.129 8.74067 15.3224 9.38646 15.3224 10.0478C15.3224 10.7092 15.129 11.3549 14.768 11.8998C14.4069 12.4447 13.895 12.863 13.3 13.0995ZM9.02582 10.0478C9.02703 9.38734 9.22035 8.74265 9.58045 8.19813C9.94055 7.65362 10.4507 7.23466 11.044 6.99611V13.0995C10.45 12.8616 9.93906 12.4429 9.57826 11.8983C9.21747 11.3538 9.02361 10.7087 9.0221 10.0478H9.02582ZM12.1813 4.8877C11.1977 4.8858 10.2357 5.18681 9.41698 5.75265C8.59827 6.31849 7.95967 7.12371 7.582 8.06643C7.20433 9.00915 7.10456 10.047 7.29532 11.0486C7.48608 12.0502 7.95879 12.9705 8.65363 13.6931C9.34848 14.4158 10.2342 14.9082 11.1988 15.1081C12.1633 15.3079 13.1633 15.2063 14.0722 14.816C14.9811 14.4258 15.758 13.7644 16.3046 12.9156C16.8513 12.0668 17.143 11.0688 17.143 10.0478C17.143 8.67927 16.6193 7.36677 15.6871 6.39906C14.7548 5.43136 13.4904 4.8877 12.172 4.8877" fill="white"/>
</svg>
