<svg width="28" height="20" viewBox="0 0 28 20" fill="none" xmlns="http://www.w3.org/2000/svg">
<path d="M25.5707 0H1.50525C0.673925 0 0 0.699555 0 1.5625V18.4375C0 19.3004 0.673925 20 1.50525 20H25.5707C26.4021 20 27.076 19.3004 27.076 18.4375V1.5625C27.076 0.699555 26.4021 0 25.5707 0Z" fill="#221F20"/>
<path d="M7.48474 7.79707C7.67952 7.72942 7.88769 7.69306 8.10461 7.69306C9.04949 7.69306 9.83837 8.38987 10.0193 9.31641L11.359 9.03241C11.0516 7.4588 9.71139 6.27385 8.10461 6.27385C7.73594 6.27385 7.38216 6.33605 7.05127 6.45097L7.48474 7.79707Z" fill="#FBC707"/>
<path d="M5.90373 12.3047L6.80996 11.2414C6.40539 10.8694 6.15031 10.3267 6.15031 9.72208C6.15031 9.11773 6.40514 8.57531 6.80921 8.20366L5.90298 7.14026C5.21594 7.77188 4.78271 8.69452 4.78271 9.72208C4.78271 10.7502 5.21644 11.6731 5.90373 12.3047Z" fill="#38A7E4"/>
<path d="M10.0199 10.1289C9.83862 11.0543 9.05037 11.7501 8.10574 11.7501C7.88856 11.7501 7.6799 11.7138 7.48537 11.6457L7.05127 12.9921C7.38228 13.1071 7.73682 13.1689 8.10574 13.1689C9.71102 13.1689 11.051 11.9865 11.3596 10.4136L10.0199 10.1289Z" fill="#EF3120"/>
<path d="M15.2103 10.8655C15.2098 10.8662 15.2096 10.8664 15.2093 10.8671L15.171 10.8401C15.0613 11.0251 14.8904 11.1747 14.6743 11.2717C14.2631 11.4574 13.8821 11.4098 13.6087 11.1607L13.5835 11.2002L13.583 11.1995L13.1161 11.924C13.232 12.0074 13.3563 12.0784 13.4871 12.1349C14.0024 12.3569 14.5296 12.3466 15.0491 12.1122C15.4246 11.9435 15.7195 11.6856 15.9211 11.3589L15.2103 10.8655ZM13.7538 9.07831C13.3202 9.27192 13.0961 9.69448 13.1423 10.1903L14.9809 9.36867C14.665 8.98273 14.2533 8.85508 13.7538 9.07831ZM12.5332 11.2851C12.4891 11.2113 12.4295 11.093 12.3936 11.0063C12.1815 10.4951 12.1713 9.96601 12.3504 9.45814C12.5473 8.90092 12.9239 8.4746 13.4098 8.25748C14.0214 7.98426 14.6974 8.03841 15.2834 8.39902C15.6553 8.62056 15.9191 8.96273 16.1195 9.44658C16.1452 9.50852 16.1673 9.57501 16.1893 9.63111L12.5332 11.2851Z" fill="white"/>
<path d="M17.4644 7.19158V11.2195L18.0676 11.4731L17.7248 12.3032L17.059 12.0159C16.9094 11.9485 16.8078 11.8457 16.7307 11.7296C16.6573 11.6113 16.6021 11.449 16.6021 11.2305V7.19158H17.4644Z" fill="white"/>
<path d="M19.0295 10.1935C19.0298 9.85063 19.1759 9.543 19.4066 9.33392L18.7876 8.61776C18.3679 9.00305 18.1038 9.56546 18.103 10.1925C18.1023 10.8203 18.3661 11.3833 18.7859 11.7695L19.4038 11.0523C19.1744 10.8427 19.0293 10.5356 19.0295 10.1935Z" fill="white"/>
<path d="M20.1272 11.336C20.0052 11.3358 19.8882 11.3147 19.7785 11.2768L19.4829 12.1895C19.6849 12.2598 19.9016 12.298 20.1264 12.2983C21.1062 12.2992 21.9247 11.5774 22.1144 10.6179L21.2057 10.4256C21.1026 10.9456 20.6586 11.3366 20.1272 11.336Z" fill="white"/>
<path d="M20.1295 8.0903C19.9047 8.09004 19.6887 8.12796 19.4866 8.19769L19.7798 9.11085C19.8895 9.07332 20.0069 9.05229 20.1287 9.05229C20.6614 9.05294 21.1054 9.44614 21.2059 9.96765L22.1147 9.77611C21.928 8.81543 21.1105 8.09095 20.1295 8.0903Z" fill="white"/>
</svg>
