<svg width="28" height="20" viewBox="0 0 28 20" fill="none" xmlns="http://www.w3.org/2000/svg">
<path d="M25.5707 0H1.50525C0.673925 0 0 0.699555 0 1.5625V18.4375C0 19.3004 0.673925 20 1.50525 20H25.5707C26.4021 20 27.076 19.3004 27.076 18.4375V1.5625C27.076 0.699555 26.4021 0 25.5707 0Z" fill="#0071BC"/>
<path d="M11.4673 10.0579C11.4665 9.20773 11.6516 8.36845 12.0086 7.60328C12.3656 6.8381 12.8851 6.16699 13.5282 5.64048C12.7282 4.98267 11.7657 4.57222 10.7513 4.45621C9.7368 4.34019 8.71136 4.5233 7.79256 4.98454C6.87375 5.44577 6.09877 6.16647 5.55648 7.06397C5.0142 7.96148 4.72656 8.99945 4.72656 10.0589C4.72656 11.1183 5.0142 12.1563 5.55648 13.0538C6.09877 13.9513 6.87375 14.672 7.79256 15.1332C8.71136 15.5945 9.7368 15.7776 10.7513 15.6616C11.7657 15.5455 12.7282 15.1351 13.5282 14.4773C12.885 13.9505 12.3653 13.279 12.0084 12.5135C11.6514 11.748 11.4664 10.9084 11.4673 10.0579Z" fill="#E71B26"/>
<path d="M13.5294 14.4769C14.6676 14.4769 15.5903 12.4982 15.5903 10.0575C15.5903 7.61674 14.6676 5.63812 13.5294 5.63812C12.3912 5.63812 11.4685 7.61674 11.4685 10.0575C11.4685 12.4982 12.3912 14.4769 13.5294 14.4769Z" fill="#F36523"/>
<path d="M16.8964 4.42384C15.6734 4.42122 14.4859 4.85046 13.5291 5.64105C14.1715 6.16834 14.6906 6.83976 15.0475 7.60496C15.4044 8.37016 15.5898 9.20929 15.5898 10.0594C15.5898 10.9096 15.4044 11.7487 15.0475 12.5139C14.6906 13.2791 14.1715 13.9506 13.5291 14.4779C14.2083 15.0355 15.0062 15.4164 15.8561 15.5887C16.7061 15.761 17.5834 15.7197 18.4149 15.4682C19.2463 15.2167 20.0077 14.7624 20.6355 14.1432C21.2633 13.524 21.7393 12.7579 22.0237 11.9088C22.308 11.0597 22.3926 10.1523 22.2702 9.26237C22.1479 8.37245 21.8222 7.52583 21.3203 6.79321C20.8185 6.0606 20.155 5.46325 19.3854 5.05107C18.6158 4.63889 17.7624 4.42382 16.8964 4.42384Z" fill="#FA9F1B"/>
</svg>
