<svg width="28" height="20" viewBox="0 0 28 20" fill="none" xmlns="http://www.w3.org/2000/svg">
<path d="M25.5704 0H1.50523C0.673916 0 0 0.697397 0 1.55768V18.3806C0 19.2409 0.673916 19.9383 1.50523 19.9383H25.5704C26.4017 19.9383 27.0756 19.2409 27.0756 18.3806V1.55768C27.0756 0.697397 26.4017 0 25.5704 0Z" fill="#F3F3F3"/>
<path fill-rule="evenodd" clip-rule="evenodd" d="M10.6702 12.4049L11.435 7.50793H12.6587L11.8939 12.4049H10.6702Z" fill="#00529B"/>
<path fill-rule="evenodd" clip-rule="evenodd" d="M16.3334 7.6272C15.9834 7.4876 15.6114 7.41683 15.2363 7.41855C14.0265 7.41855 13.1769 8.08625 13.1713 9.03887C13.1616 9.74255 13.7804 10.134 14.2434 10.3685C14.7065 10.6031 14.8775 10.7642 14.8775 10.9772C14.8775 11.3053 14.4951 11.4564 14.1433 11.4564C13.7456 11.4679 13.3513 11.3785 12.9947 11.1959L12.8334 11.1182L12.6624 12.2176C13.0971 12.3932 13.5598 12.483 14.0265 12.4824C15.3114 12.4824 16.1471 11.8262 16.1568 10.8103C16.1568 10.252 15.8342 9.82457 15.1292 9.47633C14.7023 9.25185 14.4339 9.10075 14.4339 8.87195C14.4339 8.64315 14.662 8.4532 15.1445 8.4532C15.4583 8.44312 15.7703 8.50709 16.0567 8.64027L16.1666 8.69207L16.3334 7.6344V7.6272Z" fill="#00529B"/>
<path fill-rule="evenodd" clip-rule="evenodd" d="M17.957 10.6707C18.0585 10.3829 18.4465 9.29933 18.4465 9.29933C18.4465 9.29933 18.5466 9.01153 18.6078 8.83165L18.6926 9.25328C18.6926 9.25328 18.9248 10.4246 18.9707 10.6707H17.957ZM19.4685 7.50488H18.5216C18.2296 7.50488 18.0085 7.59266 17.8819 7.91068L16.0645 12.4047H17.3479L17.6052 11.6708H19.1765C19.2113 11.8421 19.3225 12.4047 19.3225 12.4047H20.4558L19.4685 7.51208V7.50488Z" fill="#00529B"/>
<path fill-rule="evenodd" clip-rule="evenodd" d="M9.64834 7.50793L8.44968 10.8479L8.31896 10.1701C8.09648 9.38872 7.40259 8.5397 6.62109 8.11807L7.71963 12.4006H9.01285L10.936 7.50793H9.64834Z" fill="#00529B"/>
<path fill-rule="evenodd" clip-rule="evenodd" d="M7.34006 7.50793H5.37242L5.35156 7.60723C6.88118 8.01303 7.90463 8.99299 8.32318 10.1701L7.8935 7.91949C7.82258 7.60723 7.60705 7.51801 7.33728 7.50793H7.34006Z" fill="#F5AB00"/>
<path d="M27.1314 14.8077H0V18.4616C0 19.3112 0.665597 20 1.48665 20H25.6447C26.4658 20 27.1314 19.3112 27.1314 18.4616V14.8077Z" fill="#F5AB00"/>
<path d="M25.6447 0H1.48665C0.665596 0 0 0.688787 0 1.53845V4.99996H27.1314V1.53845C27.1314 0.688787 26.4658 0 25.6447 0Z" fill="#00529B"/>
</svg>
